<?xml version="1.0" encoding="UTF-8"?>
<svg xmlns="http://www.w3.org/2000/svg" viewBox="0 0 576 512" width="32" height="32">
  <g>
    <path fill="#4b2e05" d="M384 96V32c0-17.7-14.3-32-32-32H224c-17.7 0-32 14.3-32 32v64h192z"/>
    <path fill="#7ed957" d="M384 128H192c-35.3 0-64 28.7-64 64v64h320v-64c0-35.3-28.7-64-64-64z"/>
    <circle fill="#ffe066" cx="464" cy="400" r="64"/>
    <circle fill="#ffe066" cx="144" cy="400" r="80"/>
    <path fill="#4b2e05" d="M464 336a64 64 0 1 1 0 128 64 64 0 1 1 0-128zm-320 0a80 80 0 1 1 0 160 80 80 0 1 1 0-160z"/>
    <rect fill="#4b2e05" x="128" y="256" width="320" height="64"/>
    <rect fill="#7ed957" x="160" y="192" width="256" height="64"/>
    <rect fill="#ffe066" x="256" y="64" width="64" height="64"/>
  </g>
</svg>
